<svg width="45" height="45" viewBox="0 0 45 45" fill="none" xmlns="http://www.w3.org/2000/svg">
<path fill-rule="evenodd" clip-rule="evenodd" d="M12.0349 13.6044C11.5237 13.6044 11.0385 13.6409 10.5782 13.7117L10.535 13.7177C8.21734 14.0086 6.39541 15.0009 5.14788 16.4645C3.89715 17.9319 3.13953 19.9732 3.13953 22.4997V32.9648C3.13953 35.7476 4.06029 37.9447 5.55767 39.4421C7.05505 40.9394 9.25207 41.8602 12.0349 41.8602H32.9651C35.7479 41.8602 37.9449 40.9394 39.4423 39.4421C40.9397 37.9447 41.8605 35.7476 41.8605 32.9648V22.4997C41.8605 19.9561 41.0896 17.9021 39.8191 16.4299C38.5516 14.9611 36.7014 13.9715 34.3536 13.6985C34.3279 13.6955 34.3023 13.6919 34.2768 13.6876C33.9003 13.6249 33.477 13.6044 32.9651 13.6044H12.0349ZM10.1225 10.6054C10.7438 10.511 11.3816 10.4648 12.0349 10.4648H32.9651C33.5296 10.4648 34.1388 10.4853 34.7536 10.5844C37.7895 10.9457 40.3733 12.2667 42.196 14.3788C44.0232 16.4962 45 19.3085 45 22.4997V32.9648C45 36.4611 43.8277 39.4966 41.6623 41.662C39.4969 43.8274 36.4614 44.9997 32.9651 44.9997H12.0349C8.53862 44.9997 5.50309 43.8274 3.33768 41.662C1.17227 39.4966 0 36.4611 0 32.9648V22.4997C0 19.3333 0.958667 16.5396 2.75851 14.428C4.55728 12.3176 7.11234 10.9879 10.1225 10.6054Z" fill="white"/>
<path fill-rule="evenodd" clip-rule="evenodd" d="M19.4672 4.81601L13.8354 10.4651H32.5948C32.3174 9.76289 31.8875 9.10496 31.3015 8.52805L31.2863 8.51311L27.6291 4.81388C25.3743 2.58072 21.7211 2.58143 19.4672 4.81601ZM10.4462 9.41794L17.2526 2.59059C20.7321 -0.863541 26.3663 -0.863525 29.8458 2.59061L29.8562 2.60095L33.5118 6.29843C35.1314 7.89652 36.0033 9.9418 36.1055 12.064C36.1284 12.5381 35.9355 12.9971 35.5808 13.3125C35.2261 13.628 34.7477 13.766 34.2795 13.6879C33.903 13.6252 33.4797 13.6047 32.9678 13.6047H12.0376C11.5264 13.6047 11.0413 13.6412 10.5809 13.712C10.0009 13.8012 9.41945 13.5594 9.07373 13.0852C8.72801 12.6109 8.67572 11.9834 8.93819 11.4585C9.32344 10.688 9.85502 10.0093 10.4462 9.41794C10.4465 9.41766 10.4459 9.41822 10.4462 9.41794Z" fill="white"/>
<path fill-rule="evenodd" clip-rule="evenodd" d="M31.3955 27.7324C31.3955 24.5631 33.982 21.9766 37.1513 21.9766H43.4304C44.2973 21.9766 45.0002 22.6794 45.0002 23.5463C45.0002 24.4133 44.2973 25.1161 43.4304 25.1161H37.1513C35.716 25.1161 34.535 26.297 34.535 27.7324C34.535 29.1677 35.716 30.3487 37.1513 30.3487H43.4304C44.2973 30.3487 45.0002 31.0515 45.0002 31.9184C45.0002 32.7854 44.2973 33.4882 43.4304 33.4882H37.1513C33.982 33.4882 31.3955 30.9017 31.3955 27.7324Z" fill="url(#paint0_linear_2999_3946)"/>
<defs>
<linearGradient id="paint0_linear_2999_3946" x1="34.343" y1="21.9766" x2="41.9504" y2="21.9766" gradientUnits="userSpaceOnUse">
<stop stop-color="#EDB219"/>
<stop offset="0.461458" stop-color="#F5CC39"/>
<stop offset="1" stop-color="#ECCA73"/>
</linearGradient>
</defs>
</svg>
