<svg width="22" height="23" viewBox="0 0 22 23" fill="none" xmlns="http://www.w3.org/2000/svg">
<path fill-rule="evenodd" clip-rule="evenodd" d="M16.7668 1.5C16.0676 1.50174 15.5 2.07012 15.5 2.76V9H18.17C18.7994 9 19.2403 8.80404 19.5222 8.52217C19.804 8.24029 20 7.79943 20 7.17V4.75C20 3.85967 19.6368 3.0465 19.0479 2.44852C18.4658 1.86742 17.6552 1.50912 16.7668 1.5ZM14 2.76C14 1.23094 15.2507 0 16.77 0H16.7769L16.7769 3.15905e-05C18.0661 0.0118595 19.2533 0.532639 20.1103 1.38967L20.114 1.39333L20.114 1.39334C20.964 2.25519 21.5 3.44126 21.5 4.75V7.17C21.5 8.12057 21.196 8.96971 20.5828 9.58283C19.9697 10.196 19.1205 10.5 18.17 10.5H14.75C14.3358 10.5 14 10.1642 14 9.75V2.76Z" fill="white"/>
<path fill-rule="evenodd" clip-rule="evenodd" d="M1.05736 1.43106C1.86215 0.499119 3.09646 0 4.75 0H16.75C17.1642 0 17.5 0.335786 17.5 0.75C17.5 1.16421 17.1642 1.5 16.75 1.5C16.0642 1.5 15.5 2.06421 15.5 2.75V19.75C15.5 21.1917 13.8535 22.0064 12.7029 21.1522L12.7006 21.1504L10.9827 19.8645C10.8965 19.7982 10.7586 19.8021 10.6703 19.8903L8.99035 21.5703C8.30746 22.2532 7.19254 22.2532 6.50965 21.5703L6.50805 21.5687L4.84967 19.9003C4.84952 19.9002 4.84983 19.9005 4.84967 19.9003C4.75044 19.8015 4.60768 19.7967 4.51 19.87L2.80287 21.1478C2.8022 21.1483 2.80153 21.1488 2.80086 21.1493C1.64267 22.0244 0 21.1934 0 19.75V4.75C0 3.54713 0.270332 2.34244 1.05736 1.43106ZM14.3017 1.5H4.75C3.40354 1.5 2.63785 1.89588 2.19264 2.41144C1.72967 2.94756 1.5 3.74287 1.5 4.75V19.75C1.5 19.9657 1.73538 20.0747 1.89708 19.9522L1.90054 19.9496L3.61 18.67C4.31216 18.1434 5.28959 18.2189 5.91034 18.8397L5.91193 18.8413L7.57031 20.5097C7.57016 20.5095 7.57046 20.5098 7.57031 20.5097C7.66747 20.6063 7.83274 20.6066 7.92969 20.5097L9.60968 18.8297C10.2201 18.2193 11.1993 18.1422 11.8928 18.6721L13.5971 19.9478C13.5974 19.948 13.5977 19.9482 13.5979 19.9484C13.7673 20.0732 14 19.9479 14 19.75V2.75C14 2.30044 14.1089 1.87542 14.3017 1.5Z" fill="white"/>
<path fill-rule="evenodd" clip-rule="evenodd" d="M4 7.75C4 7.33579 4.33579 7 4.75 7H10.75C11.1642 7 11.5 7.33579 11.5 7.75C11.5 8.16421 11.1642 8.5 10.75 8.5H4.75C4.33579 8.5 4 8.16421 4 7.75Z" fill="white"/>
<path fill-rule="evenodd" clip-rule="evenodd" d="M4.75 11.75C4.75 11.3358 5.08579 11 5.5 11H10C10.4142 11 10.75 11.3358 10.75 11.75C10.75 12.1642 10.4142 12.5 10 12.5H5.5C5.08579 12.5 4.75 12.1642 4.75 11.75Z" fill="white"/>
</svg>
