<svg width="72" height="72" viewBox="0 0 72 72" fill="none" xmlns="http://www.w3.org/2000/svg">
<g clip-path="url(#clip0_2999_3359)">
<path d="M63.0465 28.1415C67.1203 43.3453 58.0977 58.9729 42.8939 63.0467C27.6902 67.1205 12.0626 58.0979 7.98872 42.8942C3.91487 27.6904 12.9375 12.0628 28.1413 7.98893C43.345 3.91509 58.9726 12.9377 63.0465 28.1415Z" fill="#009B3A" stroke="white"/>
<path d="M55.637 36.0013L35.9996 50.8333L16.3623 36.0013L35.9996 21.168L55.637 36.0013Z" fill="#FEDF01"/>
<path d="M35.9681 44.5104C40.7236 44.5104 44.5788 40.6553 44.5788 35.8997C44.5788 31.1442 40.7236 27.2891 35.9681 27.2891C31.2125 27.2891 27.3574 31.1442 27.3574 35.8997C27.3574 40.6553 31.2125 44.5104 35.9681 44.5104Z" fill="#002776"/>
<path d="M28.3696 31.8478C27.9224 32.6906 27.6196 33.6023 27.4736 34.5451C32.8003 34.1585 40.0296 37.0665 43.1323 40.6718C43.6683 39.8665 44.0656 38.9651 44.3096 37.9998C40.4803 34.2558 33.7536 31.8265 28.3696 31.8478Z" fill="#CBE9D4"/>
<path d="M28 36.3125H29.3333V37.6458H28V36.3125ZM29.3333 38.9792H30.6667V40.3125H29.3333V38.9792Z" fill="#88C9F9"/>
<path d="M32 36.3112H33.3333V37.6445H32V36.3112ZM34.6667 37.6445H36V38.9779H34.6667V37.6445ZM40 40.3112H41.3333V41.6445H40V40.3112ZM36 41.6445H37.3333V42.9779H36V41.6445ZM40 33.6445H41.3333V34.9779H40V33.6445Z" fill="#55ACEE"/>
<path d="M37.333 38.9766H38.6663V40.3099H37.333V38.9766Z" fill="#3B88C3"/>
</g>
<defs>
<clipPath id="clip0_2999_3359">
<rect width="58" height="58" fill="white" transform="translate(0 15.0117) rotate(-15)"/>
</clipPath>
</defs>
</svg>
