<svg width="72" height="72" viewBox="0 0 72 72" fill="none" xmlns="http://www.w3.org/2000/svg">
<g clip-path="url(#clip0_2999_3326)">
<path d="M63.0465 28.2704C67.1203 43.4742 58.0977 59.1018 42.8939 63.1756C27.6902 67.2495 12.0626 58.2269 7.98872 43.0231C3.91487 27.8193 12.9375 12.1917 28.1413 8.11784C43.345 4.04399 58.9726 13.0666 63.0465 28.2704Z" fill="#F7931A" stroke="white"/>
<path d="M47.1741 28.8096C46.7406 24.9927 43.416 23.7688 39.2431 23.4759L39.1503 18.1716L35.9234 18.2294L36.0124 23.3939C35.1641 23.4073 34.2985 23.4403 33.4347 23.4729L33.346 18.2746L30.1185 18.3306L30.2108 23.6331C29.5121 23.6589 28.825 23.6854 28.156 23.6958L28.1553 23.6791L23.7024 23.7558L23.763 27.2034C23.763 27.2034 26.1471 27.1163 26.1083 27.1605C27.4159 27.1385 27.8537 27.8899 27.9896 28.5441L28.096 34.5858C28.1857 34.5843 28.3027 34.5867 28.4379 34.6012L28.0964 34.6082L28.2441 43.0727C28.193 43.4842 27.9627 44.1445 27.0481 44.1625C27.0913 44.1978 24.7023 44.2037 24.7023 44.2037L24.1281 48.0692L28.3304 47.9958C29.1115 47.9836 29.8809 47.9838 30.6348 47.9751L30.7303 53.3386L33.9555 53.2813L33.8628 47.9771C34.7487 47.978 35.6059 47.9697 36.4428 47.9557L36.5334 53.2379L39.7604 53.1801L39.6677 47.8271C45.0906 47.4211 48.8647 45.9876 49.2475 40.8825C49.5574 36.7726 47.5948 34.9736 44.5008 34.2883C46.3572 33.303 47.4968 31.6035 47.1741 28.8096V28.8096ZM42.8566 40.3582C42.9307 44.3671 36.0571 44.0303 33.8687 44.0706L33.747 36.9634C35.9363 36.9266 42.7854 36.1778 42.8566 40.3582ZM41.1808 30.3573C41.2444 34.005 35.5123 33.6776 33.6913 33.7095L33.5785 27.266C35.3995 27.2341 41.1146 26.5528 41.1808 30.3573Z" fill="white"/>
</g>
<defs>
<clipPath id="clip0_2999_3326">
<rect width="58" height="58" fill="white" transform="translate(0 15.1406) rotate(-15)"/>
</clipPath>
</defs>
</svg>
