<svg width="58" height="58" viewBox="0 0 58 58" fill="none" xmlns="http://www.w3.org/2000/svg">
<g clip-path="url(#clip0_2999_3294)">
<path d="M57.5 29C57.5 44.7401 44.7401 57.5 29 57.5C13.2599 57.5 0.5 44.7401 0.5 29C0.5 13.2599 13.2599 0.5 29 0.5C44.7401 0.5 57.5 13.2599 57.5 29Z" fill="#627EEA" stroke="white"/>
<path d="M29.9023 7.25391V23.3308L43.4907 29.4027L29.9023 7.25391Z" fill="white" fill-opacity="0.602"/>
<path d="M29.9026 7.25391L16.3125 29.4027L29.9026 23.3308V7.25391Z" fill="white"/>
<path d="M29.9023 39.8216L29.9023 50.7455L43.4997 31.9336L29.9023 39.8216Z" fill="white" fill-opacity="0.602"/>
<path d="M29.9026 50.7455V39.8198L16.3125 31.9336L29.9026 50.7455Z" fill="white"/>
<path d="M29.9023 37.294L43.4907 29.4042L29.9023 23.3359V37.294Z" fill="white" fill-opacity="0.2"/>
<path d="M16.3125 29.4042L29.9026 37.294V23.3359L16.3125 29.4042Z" fill="white" fill-opacity="0.602"/>
</g>
<defs>
<clipPath id="clip0_2999_3294">
<rect width="58" height="58" fill="white"/>
</clipPath>
</defs>
</svg>
