<svg width="58" height="58" viewBox="0 0 58 58" fill="none" xmlns="http://www.w3.org/2000/svg">
<circle cx="29" cy="29" r="28.5" fill="#0C192B" stroke="white"/>
<g clip-path="url(#clip0_2999_3310)">
<path d="M16.3317 36.4249C16.5589 36.2083 16.8712 36.082 17.2024 36.082H47.2424C47.7913 36.082 48.0658 36.7136 47.6777 37.0835L41.7436 42.7402C41.5164 42.9567 41.2041 43.083 40.8728 43.083H10.8329C10.284 43.083 10.0095 42.4515 10.3976 42.0816L16.3317 36.4249Z" fill="url(#paint0_linear_2999_3310)"/>
<path d="M16.3317 15.3038C16.5683 15.0872 16.8806 14.9609 17.2024 14.9609L47.2424 14.9609C47.7913 14.9609 48.0658 15.5925 47.6777 15.9624L41.7436 21.6191C41.5164 21.8356 41.2041 21.9619 40.8728 21.9619H10.8329C10.284 21.9619 10.0095 21.3304 10.3976 20.9605L16.3317 15.3038Z" fill="url(#paint1_linear_2999_3310)"/>
<path d="M41.7436 25.796C41.5164 25.5794 41.2041 25.4531 40.8728 25.4531H10.8329C10.284 25.4531 10.0095 26.0847 10.3976 26.4546L16.3317 32.1113C16.5589 32.3278 16.8712 32.4541 17.2024 32.4541H47.2424C47.7913 32.4541 48.0658 31.8226 47.6777 31.4527L41.7436 25.796Z" fill="url(#paint2_linear_2999_3310)"/>
</g>
<defs>
<linearGradient id="paint0_linear_2999_3310" x1="44.3727" y1="11.5826" x2="25.1043" y2="50.2994" gradientUnits="userSpaceOnUse">
<stop stop-color="#00FFA3"/>
<stop offset="1" stop-color="#DC1FFF"/>
</linearGradient>
<linearGradient id="paint1_linear_2999_3310" x1="35.2821" y1="7.05764" x2="16.0138" y2="45.7744" gradientUnits="userSpaceOnUse">
<stop stop-color="#00FFA3"/>
<stop offset="1" stop-color="#DC1FFF"/>
</linearGradient>
<linearGradient id="paint2_linear_2999_3310" x1="39.7985" y1="9.30504" x2="20.5301" y2="48.0218" gradientUnits="userSpaceOnUse">
<stop stop-color="#00FFA3"/>
<stop offset="1" stop-color="#DC1FFF"/>
</linearGradient>
<clipPath id="clip0_2999_3310">
<rect width="37.6398" height="28.1212" fill="white" transform="translate(10.2188 14.9609)"/>
</clipPath>
</defs>
</svg>
