<svg width="58" height="58" viewBox="0 0 58 58" fill="none" xmlns="http://www.w3.org/2000/svg">
<g clip-path="url(#clip0_3043_3483)">
<path d="M57.5001 29C57.5001 44.7401 44.7402 57.5 29.0001 57.5C13.26 57.5 0.500122 44.7401 0.500122 29C0.500122 13.2599 13.26 0.5 29.0001 0.5C44.7402 0.5 57.5001 13.2599 57.5001 29Z" fill="#EF0027" stroke="white"/>
<path d="M39.7516 17.9663L13.5936 13.1523L27.3596 47.7928L46.5413 24.4225L39.7516 17.9663ZM39.3311 20.087L43.3331 23.8914L32.3893 25.8725L39.3311 20.087ZM30.0113 25.4755L18.4765 15.9092L37.3301 19.3783L30.0113 25.4755ZM29.1902 27.1684L27.3088 42.7197L17.1679 17.1942L29.1902 27.1666V27.1684ZM30.9302 27.9931L43.0504 25.8L29.1485 42.7342L30.9302 27.9931Z" fill="white"/>
</g>
<defs>
<clipPath id="clip0_3043_3483">
<rect width="58" height="58" fill="white"/>
</clipPath>
</defs>
</svg>
