<svg width="171" height="171" viewBox="0 0 171 171" fill="none" xmlns="http://www.w3.org/2000/svg">
<g clip-path="url(#clip0_3391_4686)">
<path d="M170.5 85.5C170.5 132.444 132.444 170.5 85.5 170.5C38.5558 170.5 0.5 132.444 0.5 85.5C0.5 38.5558 38.5558 0.5 85.5 0.5C132.444 0.5 170.5 38.5558 170.5 85.5Z" fill="#0055B1" stroke="white"/>
<path d="M106.993 96.8485C106.993 85.4984 100.153 81.6082 86.4725 79.9837C76.7041 78.6851 74.7537 76.0934 74.7537 71.5512C74.7537 67.009 78.0134 64.0913 84.5221 64.0913C90.3841 64.0913 93.6438 66.0365 95.2683 70.9046C95.4376 71.3754 95.7471 71.7829 96.155 72.0724C96.563 72.3619 97.0499 72.5194 97.5501 72.5238H102.76C103.061 72.5318 103.361 72.4786 103.64 72.3675C103.92 72.2563 104.174 72.0895 104.388 71.8772C104.601 71.6648 104.769 71.4113 104.882 71.1321C104.994 70.8528 105.049 70.5537 105.042 70.2527V69.9321C104.405 66.41 102.623 63.1968 99.9726 60.7917C97.322 58.3865 93.9513 56.924 90.3841 56.6315V48.851C90.3841 47.5524 89.4062 46.5799 87.7817 46.2539H82.8922C81.5937 46.2539 80.6158 47.2265 80.2898 48.851V56.3108C70.5161 57.604 64.3334 64.0913 64.3334 72.2032C64.3334 82.9013 70.8421 87.1176 84.5221 88.7421C93.6438 90.3612 96.5722 92.3117 96.5722 97.5005C96.5722 102.684 92.014 106.254 85.8259 106.254C77.3561 106.254 74.4277 102.689 73.4498 97.8211C73.1292 96.5279 72.1459 95.876 71.168 95.876H65.6319C65.3314 95.8687 65.0326 95.9224 64.7534 96.0339C64.4743 96.1453 64.2207 96.3123 64.0079 96.5246C63.7951 96.7369 63.6276 96.9901 63.5154 97.269C63.4033 97.5478 63.3489 97.8466 63.3555 98.1471V98.4677C64.654 106.579 69.8695 112.415 80.6158 114.039V121.825C80.6158 123.118 81.5937 124.096 83.2182 124.417H88.1077C89.4062 124.417 90.3841 123.444 90.7101 121.825V114.034C100.484 112.415 106.993 105.602 106.993 96.8432V96.8485Z" fill="white"/>
<path d="M68.8916 130.906C43.4874 121.821 30.4593 93.6065 39.9071 68.6351C44.7913 55.0086 55.5376 44.6363 68.8916 39.7682C70.1955 39.1216 70.8421 38.149 70.8421 36.5245V31.9823C70.8421 30.6892 70.1955 29.7166 68.8916 29.3906C68.5656 29.3906 67.9137 29.3906 67.5877 29.7112C60.2584 32.0001 53.4542 35.7162 47.567 40.6455C41.6797 45.5748 36.8256 51.62 33.2843 58.433C29.743 65.246 27.5843 72.6922 26.9325 80.3429C26.2808 87.9936 27.1489 95.6976 29.4868 103.011C35.3435 121.18 49.3495 135.127 67.5877 140.963C68.8916 141.609 70.1955 140.963 70.5161 139.664C70.8421 139.344 70.8421 139.012 70.8421 138.366V133.824C70.8421 132.851 69.8695 131.558 68.8916 130.906ZM103.412 29.7166C102.108 29.0647 100.804 29.7166 100.484 31.0098C100.158 31.3357 100.158 31.6617 100.158 32.3083V36.8505C100.158 38.149 101.13 39.4422 102.108 40.0942C127.513 49.1785 140.541 77.3935 131.093 102.365C126.209 115.991 115.462 126.364 102.108 131.232C100.804 131.878 100.158 132.851 100.158 134.475V139.018C100.158 140.311 100.804 141.283 102.108 141.609C102.434 141.609 103.086 141.609 103.412 141.289C110.742 139 117.546 135.284 123.433 130.355C129.32 125.425 134.174 119.38 137.716 112.567C141.257 105.754 143.416 98.3078 144.067 90.6571C144.719 83.0064 143.851 75.3024 141.513 67.9885C135.656 49.4992 121.324 35.552 103.412 29.7166Z" fill="white"/>
</g>
<defs>
<clipPath id="clip0_3391_4686">
<rect width="171" height="171" fill="white"/>
</clipPath>
</defs>
</svg>
