<svg width="58" height="58" viewBox="0 0 58 58" fill="none" xmlns="http://www.w3.org/2000/svg">
<g clip-path="url(#clip0_2999_3935)">
<path d="M57.4497 28.9924C57.4497 44.6533 44.7549 57.3482 29.094 57.3482C13.4337 57.3482 0.738281 44.6533 0.738281 28.9924C0.738281 13.3319 13.4337 0.636719 29.094 0.636719C44.7549 0.636719 57.4497 13.3319 57.4497 28.9924Z" fill="#1BA27A" stroke="white"/>
<path d="M42.637 14.6875H15.3135V21.2839H25.677V30.9794H32.2734V21.2839H42.637V14.6875Z" fill="white"/>
<path d="M29.038 32.0115C20.465 32.0115 13.5145 30.6547 13.5145 28.9808C13.5145 27.3072 20.4647 25.9501 29.038 25.9501C37.611 25.9501 44.5612 27.3072 44.5612 28.9808C44.5612 30.6547 37.611 32.0115 29.038 32.0115ZM46.4683 29.4861C46.4683 27.3276 38.6646 25.5781 29.038 25.5781C19.4117 25.5781 11.6074 27.3276 11.6074 29.4861C11.6074 31.3868 17.6588 32.9704 25.6775 33.3213V47.2395H32.2733V33.3268C40.3538 32.9868 46.4683 31.3966 46.4683 29.4861Z" fill="white"/>
</g>
<defs>
<clipPath id="clip0_2999_3935">
<rect width="58" height="58" fill="white"/>
</clipPath>
</defs>
</svg>
