<svg width="19" height="19" viewBox="0 0 19 19" fill="none" xmlns="http://www.w3.org/2000/svg">
<path fill-rule="evenodd" clip-rule="evenodd" d="M5.0814 5.74355C4.86554 5.74355 4.66072 5.75896 4.46636 5.78886L4.44811 5.79141C3.46954 5.91421 2.70028 6.33318 2.17355 6.95116C1.64546 7.57074 1.32558 8.43259 1.32558 9.49936V13.918C1.32558 15.0929 1.71434 16.0206 2.34657 16.6528C2.9788 17.285 3.90643 17.6738 5.0814 17.6738H13.9186C15.0936 17.6738 16.0212 17.285 16.6534 16.6528C17.2857 16.0206 17.6744 15.0929 17.6744 13.918V9.49936C17.6744 8.42538 17.3489 7.55815 16.8125 6.93657C16.2773 6.31639 15.4962 5.89856 14.5048 5.78329C14.494 5.78203 14.4832 5.7805 14.4724 5.77871C14.3135 5.75221 14.1347 5.74355 13.9186 5.74355H5.0814ZM4.27396 4.4773C4.53625 4.43744 4.80558 4.41797 5.0814 4.41797H13.9186C14.1569 4.41797 14.4142 4.42659 14.6737 4.46844C15.9556 4.621 17.0465 5.17877 17.8161 6.07052C18.5876 6.96453 19 8.15195 19 9.49936V13.918C19 15.3942 18.505 16.6758 17.5908 17.5901C16.6765 18.5044 15.3948 18.9994 13.9186 18.9994H5.0814C3.6052 18.9994 2.32353 18.5044 1.40924 17.5901C0.494959 16.6758 0 15.3942 0 13.918V9.49936C0 8.16241 0.40477 6.98287 1.1647 6.09128C1.92418 5.20023 3.00299 4.63881 4.27396 4.4773Z" fill="white"/>
<path fill-rule="evenodd" clip-rule="evenodd" d="M8.2194 2.03343L5.84153 4.41862H13.7622C13.645 4.12211 13.4636 3.84432 13.2161 3.60073L13.2097 3.59443L11.6656 2.03253C10.7135 1.08964 9.17106 1.08994 8.2194 2.03343ZM4.41055 3.97646L7.28435 1.09381C8.75349 -0.364606 11.1324 -0.3646 12.6015 1.09381L12.6059 1.09818L14.1494 2.65934C14.8332 3.33409 15.2013 4.19765 15.2445 5.09368C15.2541 5.29386 15.1727 5.48766 15.0229 5.62085C14.8732 5.75403 14.6712 5.8123 14.4735 5.77936C14.3145 5.75286 14.1358 5.7442 13.9197 5.7442H5.08247C4.86661 5.7442 4.66179 5.75961 4.46743 5.78951C4.22251 5.82719 3.97703 5.7251 3.83106 5.52486C3.68509 5.32461 3.66301 5.05966 3.77383 4.83802C3.93649 4.5127 4.16094 4.22613 4.41055 3.97646C4.41066 3.97635 4.41043 3.97658 4.41055 3.97646Z" fill="white"/>
<path fill-rule="evenodd" clip-rule="evenodd" d="M13.2559 11.7076C13.2559 10.3694 14.3479 9.27734 15.6861 9.27734H18.3373C18.7033 9.27734 19 9.57409 19 9.94013C19 10.3062 18.7033 10.6029 18.3373 10.6029H15.6861C15.08 10.6029 14.5814 11.1015 14.5814 11.7076C14.5814 12.3136 15.08 12.8122 15.6861 12.8122H18.3373C18.7033 12.8122 19 13.109 19 13.475C19 13.8411 18.7033 14.1378 18.3373 14.1378H15.6861C14.3479 14.1378 13.2559 13.0457 13.2559 11.7076Z" fill="white"/>
</svg>
